# xmcd CD database file
#
# Track frame offsets:
#	150
#	21149
#	36148
#	48148
#	71698
#	87297
#	100047
#	116847
#	132747
#	150748
#	166047
#	181795
#	198446
#	218246
#
# Disc length: 3176 seconds
#
# Revision: 0
# Processed by: cddbd v1.5.2PL0 Copyright (c) Steve Scherf et al.
# Submitted via: CDex 1.70beta2
#
DISCID=b90c660e
DTITLE=Dědkové z Kentucky - Písně kamarádů
DYEAR=1900
DGENRE=Country
TTITLE0=Marná cesta
TTITLE1=Beduín
TTITLE2=Jó to nejde
TTITLE3=Rád se vrátím zas
TTITLE4=Balada o jarní poště
TTITLE5=Tulácký blues
TTITLE6=Koukej z nebe padá hvězda
TTITLE7=než mě zahrabou
TTITLE8=Eldorádo
TTITLE9=Oh mama
TTITLE10=Hvězdičko zbloudilá
TTITLE11=Ostrov Svatého Tomáše
TTITLE12=zatracený blázni
TTITLE13=Tamtamy
EXTD=
EXTT0=
EXTT1=
EXTT2=
EXTT3=
EXTT4=
EXTT5=
EXTT6=
EXTT7=
EXTT8=
EXTT9=
EXTT10=
EXTT11=
EXTT12=
EXTT13=
PLAYORDER=
